<?xml version="1.0" standalone="no"?>
<!DOCTYPE svg PUBLIC "-//W3C//DTD SVG 20010904//EN"
 "http://www.w3.org/TR/2001/REC-SVG-20010904/DTD/svg10.dtd">
<svg version="1.0" xmlns="http://www.w3.org/2000/svg"
 width="500.000000pt" height="500.000000pt" viewBox="0 0 500.000000 500.000000"
 preserveAspectRatio="xMidYMid meet">

<g transform="translate(0.000000,500.000000) scale(0.100000,-0.100000)"
fill="#000000" stroke="none">
<path d="M2772 4008 c-7 -7 -12 -26 -12 -43 0 -48 14 -55 117 -55 51 0 93 -3
93 -8 0 -4 -105 -112 -233 -240 l-233 -233 -128 135 c-124 132 -158 157 -189
139 -17 -9 -353 -473 -369 -509 -15 -33 13 -74 50 -74 37 0 45 9 207 235 75
105 139 191 143 193 4 1 63 -56 130 -128 106 -112 128 -130 154 -130 27 0 64
34 292 260 144 143 265 260 269 260 4 0 7 -42 7 -93 0 -78 3 -97 18 -110 25
-23 58 -21 82 3 18 18 20 33 20 193 0 140 -3 177 -16 195 -15 21 -20 22 -203
22 -132 0 -191 -4 -199 -12z"/>
<path d="M2953 3385 c-18 -8 -42 -29 -53 -47 -19 -32 -20 -50 -20 -420 l0
-388 215 0 215 0 0 388 c0 371 -1 388 -20 420 -11 18 -36 40 -55 48 -46 19
-238 19 -282 -1z"/>
<path d="M2373 3143 c-33 -7 -79 -57 -87 -94 -3 -17 -6 -141 -6 -275 l0 -244
220 0 220 0 0 243 c0 133 -5 258 -10 278 -5 19 -24 48 -41 65 -30 29 -32 29
-152 31 -67 1 -132 -1 -144 -4z"/>
<path d="M1765 2886 c-65 -29 -70 -43 -73 -207 l-3 -149 215 0 216 0 0 138 c0
156 -12 191 -75 218 -45 18 -238 19 -280 0z"/>
<path d="M1560 2358 c0 -83 41 -153 111 -188 37 -19 64 -20 824 -20 850 0 825
-1 883 53 35 32 49 65 57 130 l7 57 -941 0 -941 0 0 -32z"/>
<path d="M1020 1450 l0 -280 60 0 59 0 3 108 3 107 133 3 132 3 0 54 0 55
-135 0 -136 0 3 58 3 57 153 3 152 3 0 54 0 55 -215 0 -215 0 0 -280z"/>
<path d="M1550 1450 l0 -280 65 0 65 0 0 280 0 280 -65 0 -65 0 0 -280z"/>
<path d="M1820 1450 l0 -280 60 0 60 0 2 175 3 175 133 -175 133 -175 49 0 50
0 0 280 0 280 -60 0 -60 0 -2 -167 -3 -167 -125 164 -125 165 -58 3 -57 3 0
-281z"/>
<path d="M2450 1451 l0 -281 60 0 60 0 0 85 0 85 73 0 c93 0 139 13 184 53 45
40 63 82 63 149 0 71 -31 125 -90 158 -42 23 -57 25 -197 28 l-153 4 0 -281z
m274 158 c50 -23 58 -98 14 -139 -18 -16 -35 -20 -95 -20 l-73 0 0 85 0 85 65
0 c35 0 75 -5 89 -11z"/>
<path d="M3060 1459 c-63 -149 -117 -275 -119 -280 -2 -6 22 -9 60 -7 l63 3
25 63 24 63 120 -3 119 -3 25 -62 25 -63 64 0 c49 0 62 3 58 13 -3 8 -56 133
-117 278 l-113 264 -59 3 -60 2 -115 -271z m209 41 c17 -41 31 -80 31 -87 0
-9 -20 -13 -70 -13 -38 0 -70 2 -70 5 0 6 60 157 67 168 7 11 6 12 42 -73z"/>
<path d="M3620 1450 l0 -280 200 0 200 0 0 55 0 55 -140 0 -140 0 0 225 0 225
-60 0 -60 0 0 -280z"/>
</g>
</svg>
