<svg xmlns="http://www.w3.org/2000/svg" width="3000" height="3000" fill="none" viewBox="0 0 3000 3000" id="employee-is-giving-business-presentation">
  <path fill="#1B81A6" d="M2702.7 1873.77C2203.18 1863.99 1788.22 1897.27 1289.65 1930.55C1271.6 1511.95 1250.57 1098.58 1236.8 686.252C1753.65 622.56 2190.65 594.494 2708.85 603.517C2696.54 700.9 2704.16 799.572 2708.32 897.599C2713.54 1019.24 2713.48 1141.06 2713.42 1262.81C2713.42 1461.51 2713.3 1660.26 2702.7 1873.77Z"></path>
  <path fill="#203752" d="M1996.05 1527.43C2088.46 1524.32 2180.92 1523.62 2273.32 1525.26 2280.12 1597.39 2283.63 1669.87 2283.87 1742.35 2151.97 1744.22 2020.08 1746.16 1888.18 1748.03 1889.18 1703.15 1890.23 1658.27 1891.23 1613.32 1891.46 1602.95 1891.76 1592.35 1895.68 1582.74 1900.02 1572.07 1908.46 1563.64 1917.42 1556.49 1936.93 1540.96 1959.79 1528.66 1996.05 1527.43ZM2049.08 1355.63C2228.91 1348.48 2408.96 1349.59 2588.96 1350.71 2590.61 1389.67 2592.25 1428.69 2593.95 1467.66 2594 1469.48 2594.06 1471.53 2592.83 1472.87 2591.37 1474.63 2588.73 1474.46 2586.45 1474.46 2402.81 1474.46 2231.78 1480.02 2054.18 1480.02 2055.7 1438.19 2054.94 1406.78 2049.08 1355.63ZM2738.32 664.338C2740.72 631.057 2738.26 597.073 2734.1 571.35 2482.44 550.08 1764.14 592.209 1189.28 633.401 1193.2 667.268 1195.78 700.373 1195.43 739.69 1409.76 723.284 1624.51 713.147 1839.26 703.069 2169.78 687.483 2407.67 687.776 2738.32 664.338ZM2731.76 1922.93C2726.31 1892.17 2726.13 1860.47 2731.23 1829.65 2601.5 1828.47 2556.09 1827.3 2426.37 1826.19 2297.93 1825.02 2169.49 1823.9 2041.17 1828.42 1899.9 1833.4 1758.98 1845.17 1618.18 1857.24 1500.99 1867.26 1383.81 1877.4 1266.68 1887.71 1267.09 1904.76 1270.72 1934.65 1271.72 1976.89 1440.82 1969.16 2362.56 1945.43 2731.76 1922.93ZM1388.73 1369.63C1389.78 1411.82 1390.9 1454.01 1391.95 1496.2 1584.78 1491.33 1777.67 1487.58 1970.57 1485.01 1970.16 1441 1971.62 1397 1974.9 1353.11 1779.26 1342.51 1582.67 1347.49 1388.73 1369.63Z"></path>
  <path fill="#203752" d="M1409.12 1743.51C1405.43 1687.5 1401.74 1631.48 1398.04 1575.47C1534.33 1567.09 1670.68 1558.77 1806.97 1550.39C1806.56 1627.79 1806.15 1705.19 1805.8 1782.65C1805.74 1799.12 1805.45 1816.29 1797.77 1830.82C1791.5 1842.77 1780.72 1851.79 1769.47 1859.24C1733.85 1882.79 1690.84 1893.57 1648.12 1895.51C1605.47 1897.5 1562.81 1891.11 1520.92 1882.67C1487.17 1875.88 1451.95 1866.85 1427.05 1843.12C1402.15 1819.39 1392.3 1776.38 1409.12 1743.51Z"></path>
  <path fill="#FFC5A6" d="M1933.01 1703.97C1954.81 1666 1980.7 1630.37 2010.06 1597.91 2020.9 1585.9 2032.27 1574.3 2042.46 1561.76 2065.72 1533.22 2083.07 1499.88 2093.09 1464.44 2096.25 1453.19 2098.71 1441.58 2099.01 1429.86 2099.71 1399.98 2085.24 1370.1 2061.33 1352.17 2056.47 1348.54 2050.84 1345.26 2044.75 1345.67 2036.31 1346.25 2030.22 1353.63 2025.12 1360.37 2003.21 1389.02 1979.71 1416.45 1954.69 1442.46 1948.89 1424.47 1942.68 1406.84 1934.42 1390.2 1933.36 1388.03 1932.25 1385.86 1930.43 1384.28 1925.1 1379.59 1916.13 1382.35 1911.86 1388.03 1907.58 1393.71 1906.76 1401.21 1906.06 1408.24 1903.19 1436.43 1899.38 1464.55 1894.69 1492.44 1892.93 1502.81 1891.06 1513.19 1888.42 1523.38 1882.15 1547.64 1871.6 1570.78 1857.83 1591.82 1863.34 1614.03 1877.29 1633.13 1892.52 1650.18 1907.64 1667.23 1924.45 1682.99 1933.01 1703.97ZM1031.66 1658.08C1018.48 1677.6 989.884 1676.31 966.622 1672.67 919.806 1665.35 873.106 1657.2 826.583 1648.12 815.626 1646.01 803.556 1643.14 796.993 1634.12 791.661 1626.85 791.134 1617.24 790.841 1608.28 789.142 1559.65 787.501 1511.01 785.86 1462.38 785.274 1445.8 784.688 1429.27 784.161 1412.75 848.79 1384.27 923.966 1370.97 999.786 1366.35 1003.83 1366.11 1008.34 1365.99 1011.56 1368.51 1015.08 1371.33 1015.72 1376.36 1016.13 1380.82 1020.53 1429.04 1024.86 1477.2 1029.26 1525.43 1032.01 1555.72 1034.77 1586.01 1037.46 1616.25 1038.75 1630.6 1039.69 1646.19 1031.66 1658.08Z"></path>
  <path fill="#FF9F6B" d="M1029.26 1525.43C1028.2 1525.6 1027.15 1525.78 1026.09 1525.95 959.415 1535.45 853.712 1532.63 785.392 1447.79 784.806 1431.21 784.747 1429.27 784.161 1412.75 848.79 1384.27 923.966 1370.97 999.786 1366.35 1003.83 1366.11 1008.34 1365.99 1011.56 1368.51 1015.08 1371.33 1015.72 1376.36 1016.13 1380.82 1020.53 1429.04 1024.86 1477.2 1029.26 1525.43ZM728.145 1228.65C712.266 1233.17 701.25 1247.58 693.282 1262.05 689.707 1268.56 686.426 1275.35 685.137 1282.68 680.743 1306.76 698.907 1330.37 721.289 1340.33 743.614 1350.29 769.043 1349.71 793.477 1348.54 875.45 1344.61 957.188 1335.76 1038.16 1322.17 1048.83 1320.35 1059.67 1318.42 1069.34 1313.67 1097.58 1299.73 1109.3 1260.65 1094.65 1232.76 1084.22 1212.89 1063.48 1200.06 1041.8 1194.26 1020.12 1188.46 997.383 1188.81 974.942 1189.45 891.68 1191.92 809.59 1205.51 728.145 1228.65Z"></path>
  <path fill="#FFC5A6" d="M731.073 1206.27C728.612 1249.04 729.902 1292.05 734.999 1334.65C739.687 1373.85 749.12 1415.45 778.3 1441.99C786.972 1449.9 797.05 1456.05 807.538 1461.33C870.878 1493.03 950.917 1488.4 1010.21 1449.67C1016.54 1445.51 1022.69 1440.99 1028.09 1435.72C1044.67 1419.49 1053.57 1396.76 1057.15 1373.85C1060.72 1350.94 1059.32 1327.62 1057.91 1304.47C1055.68 1267.91 1053.51 1231.29 1049.18 1194.9C1048.07 1185.41 1046.72 1175.74 1042.09 1167.36C1034.65 1153.94 1020.06 1146.27 1005.94 1140.29C967.323 1123.94 925.019 1114.51 883.359 1119.14C862.851 1121.42 842.87 1127.11 823.007 1132.79C809.296 1136.66 795.468 1140.64 783.28 1147.97C769.628 1156.17 758.73 1168.24 748.007 1180.13C741.093 1187.87 731.659 1196.01 731.073 1206.27Z"></path>
  <path fill="#203752" d="M1056.39 1278.92C1052.99 1275 1051.23 1270.02 1049.59 1265.1C1038.51 1231.99 1031.48 1197.6 1028.79 1162.79C1005.94 1179.84 977.87 1191.44 948.867 1197.13C919.863 1202.81 889.98 1202.87 860.624 1199.65C850.722 1198.59 840.82 1197.13 831.445 1193.96C814.804 1188.34 800.331 1177.62 787.089 1166.01C783.339 1214.88 762.773 1263.1 730.429 1301.48C703.886 1286.07 689.706 1255.55 683.437 1225.49C676.464 1191.97 677.46 1156.52 688.535 1124.12C699.667 1091.72 721.171 1062.6 750.175 1044.43C761.952 1037.05 775.488 1031.37 789.609 1034.59C805.605 1006.11 838.886 992.518 870.292 983.553C906.796 973.123 1024.86 963.748 1084.92 1045.55C1113.69 1084.8 1108.01 1142.22 1101.62 1174.04C1094 1211.72 1080.76 1249.39 1056.39 1278.92Z"></path>
  <path fill="#203752" d="M792.948 1226.72C817.381 1216.64 844.979 1215.94 870.057 1223.97 877.264 1226.25 880.253 1214.94 873.104 1212.66 844.862 1203.63 814.452 1205.33 787.089 1216.58 784.159 1217.81 783.514 1222.09 784.921 1224.61 786.678 1227.66 790.018 1227.95 792.948 1226.72ZM925.022 1224.9C951.331 1215.94 979.631 1216.23 1005.76 1225.67 1012.85 1228.24 1015.84 1216.88 1008.81 1214.36 980.979 1204.34 950.1 1204.1 922.092 1213.6 914.944 1216 917.873 1227.36 925.022 1224.9ZM827.755 1251.57C827.462 1251.62 827.228 1251.68 826.935 1251.74 826.232 1251.98 825.47 1252.27 824.825 1252.68 823.419 1253.56 822.54 1254.5 821.603 1255.84 821.427 1256.08 821.31 1256.31 821.192 1256.55 820.899 1257.19 820.548 1257.95 820.372 1258.66 820.079 1260.18 820.021 1261.53 820.372 1263.11 820.958 1265.63 822.657 1267.8 824.884 1269.09 825.47 1269.44 826.173 1269.67 826.817 1269.91 827.579 1270.14 828.399 1270.26 829.161 1270.32 829.513 1270.37 829.806 1270.37 830.157 1270.32 830.978 1270.26 831.798 1270.2 832.56 1269.96 833.321 1269.73 834.083 1269.38 834.786 1269.09 835.079 1268.97 835.314 1268.79 835.606 1268.62 836.485 1268.03 837.423 1267.39 838.067 1266.57 838.536 1265.98 839.005 1265.39 839.415 1264.75 839.825 1264.11 840.06 1263.34 840.353 1262.7 840.47 1262.46 840.528 1262.17 840.587 1261.88 840.763 1261.12 840.88 1260.36 840.88 1259.59 840.88 1257.95 840.47 1256.72 839.825 1255.2 839.708 1254.96 839.591 1254.73 839.415 1254.5 839.005 1253.85 838.536 1253.21 837.95 1252.68 836.837 1251.57 835.606 1250.92 834.2 1250.39 833.263 1250.04 832.267 1249.93 831.271 1249.98 829.747 1250.1 829.103 1250.28 827.696 1250.92 827.228 1251.16 826.876 1251.45 826.466 1251.8 826.056 1252.15 825.646 1252.39 825.353 1252.8 824.884 1253.38 824.415 1253.97 824.064 1254.61 823.771 1255.26 823.419 1255.96 823.243 1256.66 823.126 1257.25 823.067 1257.84 823.009 1258.42 823.009 1258.54 823.009 1258.71 823.009 1258.83 823.009 1259.42 823.126 1260 823.243 1260.59 823.243 1260.71 823.302 1260.82 823.36 1261 823.536 1261.59 823.771 1262.17 824.064 1262.76 824.122 1262.87 824.181 1262.99 824.298 1263.11 824.649 1263.81 825.177 1264.4 825.88 1264.81 826.466 1265.34 827.11 1265.69 827.872 1265.86 829.278 1266.21 831.095 1266.04 832.325 1265.28 833.614 1264.46 834.728 1263.23 835.079 1261.7 835.138 1261.23 835.196 1260.71 835.255 1260.24 835.255 1259.18 835.021 1258.19 834.493 1257.25 834.376 1257.07 834.259 1256.9 834.2 1256.72 834.376 1257.19 834.61 1257.72 834.786 1258.19 834.728 1258.01 834.669 1257.89 834.669 1257.72 834.728 1258.25 834.786 1258.71 834.845 1259.24 834.845 1259.01 834.845 1258.77 834.845 1258.54 834.786 1259.01 834.728 1259.53 834.669 1260 834.728 1259.77 834.786 1259.53 834.845 1259.3 834.669 1259.77 834.493 1260.24 834.259 1260.71 834.376 1260.47 834.493 1260.18 834.669 1260 834.376 1260.41 834.083 1260.82 833.731 1261.23 833.907 1261.06 834.083 1260.88 834.259 1260.71 833.849 1261 833.439 1261.35 833.028 1261.64 833.204 1261.47 833.439 1261.35 833.673 1261.29 833.204 1261.47 832.677 1261.7 832.208 1261.88 832.384 1261.82 832.618 1261.76 832.794 1261.7 832.267 1261.76 831.798 1261.82 831.271 1261.88 831.505 1261.88 831.739 1261.88 831.974 1261.88 831.505 1261.82 830.978 1261.76 830.509 1261.7 830.743 1261.76 830.978 1261.82 831.212 1261.88 830.743 1261.7 830.274 1261.53 829.806 1261.29 830.099 1261.41 830.333 1261.53 830.567 1261.7 830.157 1261.41 829.747 1261.12 829.337 1260.77 829.63 1261 829.923 1261.23 830.157 1261.53 829.864 1261.12 829.513 1260.71 829.22 1260.3 829.396 1260.59 829.571 1260.88 829.747 1261.18 829.571 1260.71 829.337 1260.18 829.161 1259.71 829.278 1260 829.396 1260.36 829.396 1260.71 829.337 1260.18 829.278 1259.71 829.22 1259.18 829.278 1259.48 829.22 1259.77 829.22 1260.06 829.278 1259.59 829.337 1259.07 829.396 1258.6 829.337 1259.01 829.22 1259.36 829.103 1259.71 829.278 1259.24 829.454 1258.77 829.689 1258.3 829.513 1258.71 829.278 1259.07 829.044 1259.42 829.337 1259.01 829.63 1258.6 829.981 1258.19 829.688 1258.6 829.337 1258.89 828.985 1259.24 829.396 1258.95 829.806 1258.6 830.216 1258.3 829.806 1258.66 829.337 1258.89 828.81 1259.12 829.278 1258.95 829.806 1258.71 830.274 1258.54 829.864 1258.71 829.396 1258.83 828.927 1258.89 829.454 1258.83 829.923 1258.77 830.45 1258.71 830.099 1258.77 829.747 1258.77 829.396 1258.71 829.864 1258.77 830.392 1258.83 830.86 1258.89 830.509 1258.83 830.216 1258.77 829.864 1258.66 830.333 1258.83 830.802 1259.01 831.271 1259.24 830.978 1259.12 830.743 1258.95 830.509 1258.83 830.919 1259.12 831.329 1259.42 831.739 1259.77 831.446 1259.53 831.212 1259.3 831.036 1259.07 831.329 1259.48 831.681 1259.89 831.974 1260.3 831.798 1260 831.622 1259.71 831.446 1259.42 831.622 1259.89 831.856 1260.41 832.032 1260.88 831.915 1260.59 831.798 1260.24 831.798 1259.89 831.857 1260.41 831.915 1260.88 831.974 1261.41 831.915 1261.12 831.915 1260.82 831.974 1260.53 831.915 1261 831.857 1261.53 831.798 1262 831.857 1261.7 831.915 1261.41 832.032 1261.18 831.856 1261.64 831.681 1262.11 831.446 1262.58 831.563 1262.29 831.681 1262.05 831.856 1261.82 831.564 1262.23 831.271 1262.64 830.919 1263.05 831.153 1262.76 831.388 1262.46 831.739 1262.23 831.329 1262.52 830.919 1262.87 830.509 1263.17 830.802 1262.99 831.095 1262.82 831.388 1262.7 830.919 1262.87 830.392 1263.11 829.923 1263.28 830.216 1263.17 830.45 1263.11 830.802 1263.05 831.622 1262.87 832.267 1262.52 832.853 1262 833.497 1261.59 834.024 1261 834.376 1260.3 835.079 1259.07 835.372 1257.31 834.962 1255.9 834.493 1254.44 833.614 1253.03 832.208 1252.27 831.739 1252.09 831.271 1251.92 830.802 1251.68 829.747 1251.33 828.751 1251.27 827.755 1251.57ZM965.273 1247.46C964.687 1247.58 964.101 1247.75 963.574 1247.93 962.871 1248.22 962.109 1248.46 961.406 1248.87 960.703 1249.22 960.117 1249.74 959.531 1250.21 958.71 1250.86 958.066 1251.74 957.597 1252.62 956.953 1253.96 956.484 1255.43 956.601 1256.89 956.66 1257.54 956.718 1258.42 956.953 1259.12 957.187 1259.82 957.48 1260.58 957.89 1261.23 958.828 1262.64 959.707 1263.51 961.113 1264.45 961.347 1264.63 961.582 1264.74 961.875 1264.86 962.578 1265.15 963.222 1265.51 963.984 1265.62 965.507 1265.92 966.972 1265.98 968.496 1265.51 969.257 1265.27 969.96 1264.98 970.664 1264.63 970.957 1264.51 971.191 1264.33 971.425 1264.16 972.011 1263.69 972.656 1263.28 973.242 1262.69 973.769 1262.17 974.296 1261.46 974.707 1260.82 975.351 1259.94 975.703 1258.94 976.054 1257.95 976.171 1257.65 976.23 1257.42 976.289 1257.13 976.406 1256.37 976.582 1255.55 976.523 1254.78 976.464 1253.2 976.171 1251.74 975.351 1250.33 975 1249.69 974.531 1249.04 973.945 1248.51 973.535 1248.1 973.007 1247.69 972.48 1247.4 972.363 1247.34 972.246 1247.28 972.07 1247.23 970.781 1246.64 970.136 1246.46 968.671 1246.35 967.968 1246.29 967.148 1246.4 966.445 1246.58 965.976 1246.7 965.507 1246.87 965.039 1247.05 964.511 1247.28 964.042 1247.46 963.574 1247.75 962.988 1248.16 962.226 1248.69 961.699 1249.28 961.289 1249.74 960.937 1250.21 960.585 1250.74 960.468 1250.86 960.41 1251.03 960.292 1251.15 959.472 1252.56 959.179 1253.96 959.062 1255.55 959.003 1256.31 959.179 1257.07 959.296 1257.83 959.355 1258.36 959.589 1258.83 959.824 1259.35 960.292 1260.47 960.585 1260.99 961.464 1261.93 961.581 1262.05 961.64 1262.11 961.757 1262.23 962.226 1262.64 962.753 1263.05 963.281 1263.34 964.57 1264.04 966.21 1264.28 967.675 1263.92 968.496 1263.75 969.14 1263.4 969.726 1262.87 970.371 1262.46 970.898 1261.87 971.249 1261.17 971.953 1259.82 972.304 1258.24 971.835 1256.78 971.367 1255.25 970.488 1253.96 969.082 1253.14 968.964 1253.08 968.847 1253.03 968.73 1252.91 969.14 1253.2 969.55 1253.49 969.96 1253.85 969.843 1253.73 969.726 1253.61 969.609 1253.49 969.902 1253.9 970.253 1254.32 970.546 1254.73 970.429 1254.55 970.312 1254.37 970.195 1254.14 970.371 1254.61 970.605 1255.14 970.781 1255.6 970.664 1255.31 970.605 1255.02 970.546 1254.73 970.605 1255.25 970.664 1255.72 970.722 1256.25 970.664 1255.96 970.722 1255.66 970.722 1255.31 970.664 1255.78 970.605 1256.31 970.546 1256.78 970.605 1256.42 970.664 1256.13 970.781 1255.78 970.605 1256.25 970.429 1256.72 970.195 1257.19 970.312 1256.89 970.488 1256.66 970.664 1256.37 970.371 1256.78 970.078 1257.19 969.726 1257.6 969.96 1257.3 970.195 1257.07 970.488 1256.83 970.078 1257.13 969.667 1257.48 969.257 1257.77 969.492 1257.6 969.785 1257.42 970.078 1257.3 969.609 1257.48 969.082 1257.71 968.613 1257.89 968.847 1257.77 969.082 1257.71 969.375 1257.65 968.847 1257.71 968.378 1257.77 967.851 1257.83 968.085 1257.83 968.261 1257.83 968.496 1257.83 968.027 1257.77 967.499 1257.71 967.031 1257.65 967.206 1257.65 967.324 1257.71 967.499 1257.77 967.031 1257.6 966.562 1257.42 966.093 1257.19 966.269 1257.24 966.445 1257.36 966.621 1257.48 966.21 1257.19 965.8 1256.89 965.39 1256.54 965.507 1256.66 965.683 1256.78 965.742 1256.95 965.449 1256.54 965.097 1256.13 964.804 1255.72 964.921 1255.9 965.039 1256.07 965.097 1256.25 964.921 1255.78 964.687 1255.25 964.511 1254.78 964.628 1255.08 964.687 1255.31 964.746 1255.6 964.687 1255.08 964.628 1254.61 964.57 1254.08 964.628 1254.43 964.57 1254.78 964.57 1255.08 964.628 1254.61 964.687 1254.08 964.746 1253.61 964.687 1254.08 964.57 1254.49 964.394 1254.9 964.57 1254.43 964.746 1253.96 964.98 1253.49 964.804 1253.96 964.511 1254.37 964.218 1254.78 964.511 1254.37 964.804 1253.96 965.156 1253.55 964.863 1253.96 964.511 1254.31 964.101 1254.61 964.511 1254.31 964.921 1253.96 965.332 1253.67 964.98 1253.9 964.628 1254.14 964.277 1254.26 964.746 1254.08 965.273 1253.85 965.742 1253.67 965.449 1253.79 965.097 1253.9 964.804 1253.9 965.332 1253.85 965.8 1253.79 966.328 1253.73 966.035 1253.79 965.742 1253.79 965.449 1253.73 965.917 1253.79 966.445 1253.85 966.914 1253.9 966.621 1253.85 966.386 1253.79 966.093 1253.67 966.562 1253.85 967.031 1254.02 967.499 1254.26 967.206 1254.14 966.914 1253.96 966.679 1253.79 967.089 1254.08 967.5 1254.37 967.91 1254.73 967.617 1254.49 967.382 1254.26 967.148 1253.96 967.441 1254.37 967.792 1254.78 968.085 1255.19 967.91 1254.96 967.734 1254.67 967.617 1254.37 967.792 1254.84 968.027 1255.37 968.203 1255.84 968.085 1255.6 968.027 1255.31 967.968 1255.02 968.027 1255.55 968.085 1256.01 968.144 1256.54 968.144 1256.31 968.144 1256.13 968.144 1255.96 968.085 1256.42 968.027 1256.95 967.968 1257.42 968.027 1257.19 968.085 1256.95 968.144 1256.72 967.968 1257.19 967.792 1257.65 967.558 1258.12 967.675 1257.89 967.792 1257.71 967.91 1257.48 967.617 1257.89 967.324 1258.3 966.972 1258.71 967.148 1258.48 967.382 1258.24 967.617 1258.07 967.207 1258.36 966.796 1258.71 966.386 1259 966.796 1258.71 967.207 1258.48 967.617 1258.3 967.148 1258.48 966.621 1258.71 966.152 1258.89 966.738 1258.65 967.324 1258.48 967.968 1258.36 968.789 1258.18 969.433 1257.83 970.019 1257.3 970.664 1256.89 971.191 1256.31 971.542 1255.6 971.953 1254.96 972.187 1254.26 972.187 1253.49 972.363 1252.73 972.304 1251.97 972.07 1251.27 971.601 1249.8 970.722 1248.4 969.316 1247.64 968.847 1247.46 968.378 1247.28 967.91 1247.05 967.265 1247.23 966.269 1247.23 965.273 1247.46ZM858.104 1387.85C894.315 1401.86 935.741 1386.56 954.784 1352.99 958.475 1346.43 948.339 1340.63 944.589 1347.19 927.89 1376.6 892.499 1388.67 861.093 1376.54 854.12 1373.85 851.132 1385.16 858.104 1387.85Z"></path>
  <path fill="#31DECD" d="M1837.33 1565.51C1837.33 1565.51 1618.24 1829.12 1565.04 1829.12C1511.84 1829.12 1442.76 1650.94 1237.62 1577.05C1032.54 1503.17 889.514 1577.34 889.514 1577.34L760.842 1555.72C760.842 1555.72 552.717 1561.82 456.154 1637.46C359.533 1713.11 252.658 1985.16 261.213 2152.21C269.768 2319.26 356.779 2375.22 565.49 2312.64C565.49 2312.64 567.541 2390.63 572.697 2419.69C572.697 2419.69 906.037 2460.76 1272.31 2405.92C1272.31 2405.92 1281.1 2115.7 1266.45 1942.09C1266.45 1942.09 1430.98 2127.01 1552.91 2132.75C1739.77 2141.49 1936.17 1779.26 1989.9 1678.48L1837.33 1565.51ZM554.651 2108.32C539.768 2111.9 524.475 2113.89 509.123 2115C532.209 2033.03 554.182 1952.81 576.213 1872.6C567.541 1950.59 561.096 2029.45 554.651 2108.32Z"></path>
  <path fill="#1B81A6" d="M810.936 1639.74L866.6 1698.57L805.018 2314.45L894.373 2388.92L995.037 2308.42L932.986 1705.02L976.756 1638.98L892.205 1577.75L810.936 1639.74Z"></path>
  <path fill="#31DECD" d="M896.777 1562.93C933.632 1535.04 974.472 1512.48 1017.71 1496.25C1035.64 1511.36 1052.64 1530 1067.28 1550.33C1052.17 1605.05 1027.15 1655.56 993.984 1699.92C965.917 1660.54 932.812 1626.97 896.308 1597.55C862.851 1629.49 830.566 1664.41 796.347 1697.34C768.574 1655.09 747.597 1608.92 732.949 1560.88C743.964 1529.64 760.781 1505.68 779.472 1491.38C824.882 1508.08 860.625 1543.36 896.777 1562.93Z"></path>
  <path fill="#FFC5A6" d="M918.401 2014.62C900.764 2006.89 879.729 2014.04 864.553 2025.93C849.377 2037.83 838.069 2053.88 824.299 2067.42C811.526 2080.01 796.526 2090.33 780.237 2097.83C769.866 2102.63 758.674 2106.44 750.354 2114.29C742.034 2122.14 737.522 2135.62 743.85 2145.17C747.952 2151.38 755.51 2154.31 762.659 2156.36C803.557 2167.85 850.315 2159.53 882.717 2132.1C915.237 2104.57 931.233 2057.92 918.401 2014.62Z"></path>
  <path fill="#203752" d="M1190.57 2365.25C1224.2 2219.53 1254.14 2048.08 1293.57 1877.05C1168.71 1884.61 1045.84 1890.12 922.91 1891.52C903.574 1975.43 855.234 2217.3 818.613 2376.15C943.711 2380.9 1069.1 2376.56 1190.57 2365.25Z"></path>
  <path fill="#FFC5A6" d="M851.603 2075.45C886.877 2077.38 922.385 2074.86 957.013 2068.01C968.146 2065.78 979.865 2063.2 990.529 2067.01C1002.36 2071.23 1010.51 2083.06 1012.62 2095.43C1014.73 2107.85 1011.45 2120.68 1006 2131.99C992.052 2160.76 964.22 2180.92 934.338 2192.28C904.455 2203.65 872.287 2207.34 840.529 2210.92C825.646 2212.61 810.822 2214.26 795.939 2215.95C778.713 2217.89 760.783 2219.76 744.377 2214.14C727.97 2208.51 713.556 2193.1 715.021 2175.76C716.134 2162.81 725.744 2151.91 736.935 2145.23C748.068 2138.55 760.842 2135.21 773.088 2130.82C804.67 2119.33 833.556 2100.11 851.603 2075.45Z"></path>
  <path fill="#31DECD" d="M776.544 2238.4C775.841 2186.84 775.08 2134.45 759.552 2082.54C713.146 2092.56 665.626 2097.42 618.107 2097.13C623.966 2159.41 631.935 2221.58 641.896 2283.34C686.72 2267.81 731.486 2252.17 776.544 2238.4Z"></path>
  <path fill="#203752" d="M736.523 1579.16C749.18 1619.65 767.109 1658.26 789.961 1693.95C791.543 1696.35 795.352 1698.05 797.988 1696.12C834.785 1668.58 868.008 1636.82 896.895 1601.02C901.582 1595.22 893.32 1586.9 888.574 1592.82C860.391 1627.74 828.105 1659.08 792.188 1685.98C794.883 1686.68 797.52 1687.39 800.215 1688.15C777.891 1653.28 760.313 1615.78 747.949 1576.23C745.606 1569.03 734.238 1571.96 736.523 1579.16Z"></path>
  <path fill="#203752" d="M892.149 1601.72C919.454 1630.72 949.044 1657.79 980.04 1682.81C982.735 1684.98 987.481 1685.27 989.239 1681.52C1009.86 1637.81 1033.24 1595.51 1059.26 1554.78C1063.3 1548.4 1053.11 1542.6 1049.06 1548.98C1023.11 1589.71 999.727 1632.01 979.044 1675.72C982.091 1675.31 985.196 1674.9 988.243 1674.43C957.188 1649.41 927.657 1622.34 900.352 1593.34C895.196 1587.89 886.993 1596.21 892.149 1601.72Z"></path>
  <path fill="#203752" d="M832.85 1670.45C839.589 1676.95 846.268 1683.46 853.007 1689.96C858.69 1695.47 864.139 1700.22 872.225 1701.39C880.721 1702.56 889.569 1701.04 898.182 1701.27C908.319 1701.56 918.28 1702.91 928.182 1705.2C930.057 1705.61 932.577 1705.25 933.866 1703.67C943.944 1690.96 954.022 1678.24 964.1 1665.59C968.729 1659.73 960.467 1651.47 955.78 1657.38C945.702 1670.1 935.624 1682.81 925.546 1695.47C927.421 1694.94 929.354 1694.41 931.229 1693.95C914.178 1690.02 897.538 1689.49 880.194 1690.08C876.21 1690.2 872.167 1690.14 868.592 1688.09C865.487 1686.33 862.967 1683.34 860.389 1680.88C853.944 1674.67 847.499 1668.4 841.053 1662.19C835.663 1656.86 827.401 1665.18 832.85 1670.45Z"></path>
  <path fill="#203752" d="M925.371 1705.9C931.934 1773.17 939.903 1840.26 949.219 1907.17 950.274 1914.61 961.582 1911.63 960.586 1904.24 951.387 1838.32 943.594 1772.23 937.09 1705.96 936.387 1698.52 924.668 1698.4 925.371 1705.9ZM861.624 1704.26C848.264 1808.49 832.092 1912.85 826.76 2017.91 826.35 2025.47 838.128 2025.47 838.479 2017.97 843.811 1912.97 859.983 1808.55 873.342 1704.31 874.28 1696.81 862.561 1696.87 861.624 1704.26ZM497.17 2124.26C585.646 2110.67 674.65 2100.88 763.947 2094.85 771.447 2094.32 771.564 2082.6 764.006 2083.13 673.713 2089.22 583.713 2099.18 494.24 2112.89 486.74 2114.07 489.787 2125.37 497.17 2124.26Z"></path>
  <path fill="#203752" d="M759.434 2092.38C765.41 2139.14 768.926 2186.25 770.215 2233.36C770.391 2240.92 782.109 2240.97 781.934 2233.42C780.644 2185.25 776.895 2137.2 770.801 2089.39C769.805 2081.95 758.496 2085 759.434 2092.38Z"></path>
  <path fill="#203752" d="M771.854 2231.07C702.713 2256.03 632.987 2279.35 562.733 2301.03 555.526 2303.26 558.455 2314.63 565.662 2312.4 635.916 2290.72 705.643 2267.4 774.783 2242.44 781.815 2239.86 778.944 2228.49 771.854 2231.07ZM562.147 2101.59C566.131 2021.96 573.689 1942.56 584.881 1863.64 585.936 1856.26 574.627 1853.15 573.572 1860.59 562.205 1940.51 554.471 2020.9 550.486 2101.53 550.018 2109.09 561.736 2109.15 562.147 2101.59Z"></path>
  <path fill="#203752" d="M514.863 2107.03C537.773 2037.89 559.512 1968.33 579.961 1898.37 582.07 1891.11 570.762 1888.12 568.652 1895.33 548.203 1965.23 526.465 2034.84 503.555 2103.98 501.211 2111.19 512.52 2114.17 514.863 2107.03ZM1250.86 1819.99C1250.92 1853.09 1251.04 1886.2 1251.1 1919.3 1251.1 1926.86 1262.82 1926.92 1262.82 1919.36 1262.76 1886.26 1262.64 1853.15 1262.58 1820.05 1262.58 1812.49 1250.86 1812.43 1250.86 1819.99Z"></path>
  <path fill="#FFC5A6" d="M1849.51 1246.41C1853.21 1111.23 1851.97 975.937 1845.76 840.878 1680.47 833.085 1515.41 843.281 1352.7 868.418 1359.49 1006.23 1369.28 1142.99 1382.17 1277.93 1538.79 1267.91 1695.53 1259.88 1849.51 1246.41ZM1946.25 847.908C1949.88 894.314 1953.52 940.721 1957.15 987.127 2171.08 978.279 2385.06 969.373 2598.99 960.525 2599.51 910.545 2600.1 860.623 2600.63 810.643 2383.42 825.701 2166.09 840.76 1946.25 847.908Z"></path>
  <path fill="#203752" d="M2323.95 1529.06C2322.3 1598.78 2324.24 1668.57 2331.15 1740.41C2420.98 1740.41 2506.82 1740.52 2593.89 1739.76C2592.95 1672.61 2591.07 1592.28 2592.3 1525.13C2503.48 1525.13 2414.59 1525.13 2323.95 1529.06Z"></path>
  <path fill="#31DECD" d="M1960.78 1213.19C1964.18 1238.56 1965.17 1264.05 1963.88 1289.48 1993.06 1288.77 2022.24 1288.25 2051.42 1287.84 2045.27 1262.29 2043.16 1236.57 2044.98 1210.84 2029.1 1209.91 2013.1 1210.84 1997.11 1211.31 1985.27 1211.66 1973.26 1211.78 1960.78 1213.19ZM2100 1177.8C2103.4 1214.95 2104.4 1252.27 2103.11 1289.48 2132.29 1288.48 2161.47 1287.66 2190.65 1287.08 2184.49 1249.69 2182.38 1211.96 2184.2 1174.4 2168.32 1172.99 2152.33 1174.4 2136.33 1175.1 2124.49 1175.57 2112.48 1175.75 2100 1177.8ZM2233.07 1134.32C2236.47 1185.94 2237.46 1237.73 2236.17 1289.47 2265.35 1288.07 2294.53 1286.95 2323.71 1286.13 2317.56 1234.22 2315.45 1181.84 2317.27 1129.57 2301.39 1127.64 2285.39 1129.57 2269.4 1130.51 2257.5 1131.27 2245.55 1131.45 2233.07 1134.32ZM2369.18 1075.84C2372.58 1146.97 2373.57 1218.28 2372.28 1289.47 2401.46 1287.54 2430.64 1286.01 2459.82 1284.9 2453.67 1213.42 2451.56 1141.29 2453.38 1069.33 2437.5 1066.64 2421.5 1069.33 2405.51 1070.68 2393.61 1071.68 2381.66 1071.91 2369.18 1075.84ZM2503.24 1014.79C2506.64 1106.19 2507.63 1197.89 2506.35 1289.47 2535.53 1287.01 2564.71 1285.08 2593.88 1283.61 2587.73 1191.68 2585.62 1098.93 2587.44 1006.47 2571.56 1003.01 2555.56 1006.47 2539.57 1008.17 2527.67 1009.4 2515.72 1009.75 2503.24 1014.79ZM1725.65 1145.45C1679.12 1220.15 1509.38 1233.22 1467.83 1117.2 1460.57 1096.93 1456.93 1077.59 1456.41 1059.37 1453.83 973.122 1520.27 913.239 1598.2 913.239 1616.9 913.239 1633.83 915.583 1649.01 919.86 1682.64 929.294 1707.66 948.161 1724.42 972.067 1759.22 1021.52 1758.63 1092.48 1725.65 1145.45Z"></path>
  <path fill="#203752" d="M1724.42 972.009C1681.35 1002.83 1640.51 1036.81 1602.42 1073.61H1602.31C1552.97 1069.68 1504.75 1064.88 1456.41 1059.37C1453.83 973.122 1520.27 913.239 1598.2 913.239C1616.9 913.239 1633.83 915.583 1649.01 919.86C1682.64 929.294 1707.66 948.161 1724.42 972.009Z"></path>
  <path fill="#1B81A6" d="M1724.41 972.014C1681.35 1002.83 1640.51 1036.82 1602.42 1073.62H1602.3C1602.36 1066.29 1603.83 1058.85 1605.47 1051.76C1615.9 1006.58 1631.78 962.932 1649 919.865C1682.64 929.299 1707.66 948.166 1724.41 972.014Z"></path>
  <path fill="#203752" d="M1956.68 1253.97C2050.2 1261.7 2144.77 1255.37 2236.35 1235.1C2317.74 1217.11 2401.35 1189.81 2470.43 1141.94C2506.23 1117.15 2537.7 1086.27 2559.79 1048.54C2563.6 1042.03 2553.46 1036.23 2549.59 1042.74C2510.27 1109.77 2441.49 1152.66 2371.11 1181.49C2288.61 1215.3 2199.55 1234.98 2110.84 1242.37C2059.57 1246.64 2008.01 1246.53 1956.74 1242.31C1949.18 1241.6 1949.18 1253.32 1956.68 1253.97Z"></path>
  <path fill="#203752" d="M2515.08 1052.58C2530.72 1049.3 2546.36 1046.02 2562.01 1042.79 2559.61 1041.39 2557.26 1039.98 2554.86 1038.58 2558.85 1056.27 2562.83 1074.03 2566.81 1091.72 2568.45 1099.1 2579.82 1096.12 2578.18 1088.79 2574.2 1071.1 2570.21 1053.34 2566.23 1035.65 2565.52 1032.42 2562.07 1030.84 2559.08 1031.43 2543.44 1034.71 2527.79 1037.99 2512.15 1041.21 2504.7 1042.79 2507.69 1054.1 2515.08 1052.58ZM859.455 2083.83C869.651 2080.08 880.197 2080.14 890.862 2079.79 900.53 2079.44 910.139 2078.44 919.631 2076.68 939.143 2073.11 958.01 2066.43 975.53 2057.23 982.209 2053.72 976.35 2043.58 969.67 2047.09 952.385 2056.18 933.928 2062.45 914.651 2065.73 895.549 2069.01 874.807 2065.79 856.467 2072.52 849.494 2075.1 852.365 2086.47 859.455 2083.83ZM1945.9 1422.02C1949.41 1443.99 1963.71 1461.16 1974.37 1479.97 1983.75 1496.49 1991.19 1519.81 1976.25 1535.57 1971.09 1541.02 1979.41 1549.28 1984.57 1543.77 1999.86 1527.66 1998.4 1504.28 1990.14 1485.18 1980.29 1462.51 1961.31 1444.17 1957.26 1419.03 1956.03 1411.65 1944.67 1414.63 1945.9 1422.02Z"></path>
</svg>
